<svg width="277" height="56" viewBox="0 0 277 56" fill="none" xmlns="http://www.w3.org/2000/svg">
<path d="M47.533 0H8.467C3.798 0 0 3.798 0 8.467V47.533C0 52.202 3.798 56 8.467 56H47.533C52.202 56 56 52.202 56 47.533V8.467C56 3.798 52.202 0 47.533 0ZM50 27C50 27.553 49.553 28 49 28C48.447 28 48 27.553 48 27V20.414L34.167 34.247C34.691 35.038 35 35.983 35 37C35 39.757 32.757 42 30 42C27.243 42 25 39.757 25 37C25 35.983 25.309 35.038 25.833 34.247L15.753 24.167C14.962 24.691 14.017 25 13 25C11.983 25 11.038 24.691 10.247 24.167L3.707 30.707L2.293 29.293L8.833 22.753C8.309 21.962 8 21.017 8 20C8 17.243 10.243 15 13 15C15.757 15 18 17.243 18 20C18 21.017 17.691 21.962 17.167 22.753L27.247 32.833C28.038 32.309 28.983 32 30 32C31.017 32 31.962 32.309 32.753 32.833L46.586 19H40C39.447 19 39 18.553 39 18C39 17.447 39.447 17 40 17H50V27Z" fill="#7629C8"/>
<path d="M84.52 14.96C88.6533 14.96 91.8267 15.6933 94.04 17.16C96.2533 18.6 97.36 20.9733 97.36 24.28C97.36 27.6133 96.24 30.0267 94 31.52C91.76 32.9867 88.56 33.72 84.4 33.72H82.44V43H76.2V15.68C77.56 15.4133 79 15.2267 80.52 15.12C82.04 15.0133 83.3733 14.96 84.52 14.96ZM84.92 20.28C84.4667 20.28 84.0133 20.2933 83.56 20.32C83.1333 20.3467 82.76 20.3733 82.44 20.4V28.4H84.4C86.56 28.4 88.1867 28.1067 89.28 27.52C90.3733 26.9333 90.92 25.84 90.92 24.24C90.92 23.4667 90.7733 22.8267 90.48 22.32C90.2133 21.8133 89.8133 21.4133 89.28 21.12C88.7733 20.8 88.1467 20.5867 87.4 20.48C86.6533 20.3467 85.8267 20.28 84.92 20.28ZM108.801 38.84C109.388 38.84 109.948 38.8267 110.481 38.8C111.014 38.7733 111.441 38.7333 111.761 38.68V34.16C111.521 34.1067 111.161 34.0533 110.681 34C110.201 33.9467 109.761 33.92 109.361 33.92C108.801 33.92 108.268 33.96 107.761 34.04C107.281 34.0933 106.854 34.2133 106.481 34.4C106.108 34.5867 105.814 34.84 105.601 35.16C105.388 35.48 105.281 35.88 105.281 36.36C105.281 37.2933 105.588 37.9467 106.201 38.32C106.841 38.6667 107.708 38.84 108.801 38.84ZM108.321 21.4C110.081 21.4 111.548 21.6 112.721 22C113.894 22.4 114.828 22.9733 115.521 23.72C116.241 24.4667 116.748 25.3733 117.041 26.44C117.334 27.5067 117.481 28.6933 117.481 30V42.4C116.628 42.5867 115.441 42.8 113.921 43.04C112.401 43.3067 110.561 43.44 108.401 43.44C107.041 43.44 105.801 43.32 104.681 43.08C103.588 42.84 102.641 42.4533 101.841 41.92C101.041 41.36 100.428 40.64 100.001 39.76C99.5743 38.88 99.3609 37.8 99.3609 36.52C99.3609 35.2933 99.6009 34.2533 100.081 33.4C100.588 32.5467 101.254 31.8667 102.081 31.36C102.908 30.8533 103.854 30.4933 104.921 30.28C105.988 30.04 107.094 29.92 108.241 29.92C109.014 29.92 109.694 29.96 110.281 30.04C110.894 30.0933 111.388 30.1733 111.761 30.28V29.72C111.761 28.7067 111.454 27.8933 110.841 27.28C110.228 26.6667 109.161 26.36 107.641 26.36C106.628 26.36 105.628 26.44 104.641 26.6C103.654 26.7333 102.801 26.9333 102.081 27.2L101.321 22.4C101.668 22.2933 102.094 22.1867 102.601 22.08C103.134 21.9467 103.708 21.84 104.321 21.76C104.934 21.6533 105.574 21.5733 106.241 21.52C106.934 21.44 107.628 21.4 108.321 21.4ZM135.55 27.24C135.017 27.1067 134.39 26.9733 133.67 26.84C132.95 26.68 132.177 26.6 131.35 26.6C130.977 26.6 130.524 26.64 129.99 26.72C129.484 26.7733 129.097 26.84 128.83 26.92V43H122.87V23.08C123.937 22.7067 125.19 22.36 126.63 22.04C128.097 21.6933 129.724 21.52 131.51 21.52C131.83 21.52 132.217 21.5467 132.67 21.6C133.124 21.6267 133.577 21.68 134.03 21.76C134.484 21.8133 134.937 21.8933 135.39 22C135.844 22.08 136.23 22.1867 136.55 22.32L135.55 27.24ZM147.395 38.84C147.981 38.84 148.541 38.8267 149.075 38.8C149.608 38.7733 150.035 38.7333 150.355 38.68V34.16C150.115 34.1067 149.755 34.0533 149.275 34C148.795 33.9467 148.355 33.92 147.955 33.92C147.395 33.92 146.861 33.96 146.355 34.04C145.875 34.0933 145.448 34.2133 145.075 34.4C144.701 34.5867 144.408 34.84 144.195 35.16C143.981 35.48 143.875 35.88 143.875 36.36C143.875 37.2933 144.181 37.9467 144.795 38.32C145.435 38.6667 146.301 38.84 147.395 38.84ZM146.915 21.4C148.675 21.4 150.141 21.6 151.315 22C152.488 22.4 153.421 22.9733 154.115 23.72C154.835 24.4667 155.341 25.3733 155.635 26.44C155.928 27.5067 156.075 28.6933 156.075 30V42.4C155.221 42.5867 154.035 42.8 152.515 43.04C150.995 43.3067 149.155 43.44 146.995 43.44C145.635 43.44 144.395 43.32 143.275 43.08C142.181 42.84 141.235 42.4533 140.435 41.92C139.635 41.36 139.021 40.64 138.595 39.76C138.168 38.88 137.955 37.8 137.955 36.52C137.955 35.2933 138.195 34.2533 138.675 33.4C139.181 32.5467 139.848 31.8667 140.675 31.36C141.501 30.8533 142.448 30.4933 143.515 30.28C144.581 30.04 145.688 29.92 146.835 29.92C147.608 29.92 148.288 29.96 148.875 30.04C149.488 30.0933 149.981 30.1733 150.355 30.28V29.72C150.355 28.7067 150.048 27.8933 149.435 27.28C148.821 26.6667 147.755 26.36 146.235 26.36C145.221 26.36 144.221 26.44 143.235 26.6C142.248 26.7333 141.395 26.9333 140.675 27.2L139.915 22.4C140.261 22.2933 140.688 22.1867 141.195 22.08C141.728 21.9467 142.301 21.84 142.915 21.76C143.528 21.6533 144.168 21.5733 144.835 21.52C145.528 21.44 146.221 21.4 146.915 21.4ZM169.864 43.4C168.131 43.3733 166.717 43.1867 165.624 42.84C164.557 42.4933 163.704 42.0133 163.064 41.4C162.451 40.76 162.024 40 161.784 39.12C161.571 38.2133 161.464 37.2 161.464 36.08V12.92L167.424 11.96V34.88C167.424 35.4133 167.464 35.8933 167.544 36.32C167.624 36.7467 167.771 37.1067 167.984 37.4C168.224 37.6933 168.557 37.9333 168.984 38.12C169.411 38.3067 169.984 38.4267 170.704 38.48L169.864 43.4ZM182.52 43.4C180.787 43.3733 179.374 43.1867 178.28 42.84C177.214 42.4933 176.36 42.0133 175.72 41.4C175.107 40.76 174.68 40 174.44 39.12C174.227 38.2133 174.12 37.2 174.12 36.08V12.92L180.08 11.96V34.88C180.08 35.4133 180.12 35.8933 180.2 36.32C180.28 36.7467 180.427 37.1067 180.64 37.4C180.88 37.6933 181.214 37.9333 181.64 38.12C182.067 38.3067 182.64 38.4267 183.36 38.48L182.52 43.4ZM185.777 32.64C185.777 30.7733 186.057 29.1467 186.617 27.76C187.203 26.3467 187.963 25.1733 188.897 24.24C189.83 23.3067 190.897 22.6 192.097 22.12C193.323 21.64 194.577 21.4 195.857 21.4C198.843 21.4 201.203 22.32 202.937 24.16C204.67 25.9733 205.537 28.6533 205.537 32.2C205.537 32.5467 205.523 32.9333 205.497 33.36C205.47 33.76 205.443 34.12 205.417 34.44H191.897C192.03 35.6667 192.603 36.64 193.617 37.36C194.63 38.08 195.99 38.44 197.697 38.44C198.79 38.44 199.857 38.3467 200.897 38.16C201.963 37.9467 202.83 37.6933 203.497 37.4L204.297 42.24C203.977 42.4 203.55 42.56 203.017 42.72C202.483 42.88 201.883 43.0133 201.217 43.12C200.577 43.2533 199.883 43.36 199.137 43.44C198.39 43.52 197.643 43.56 196.897 43.56C195.003 43.56 193.35 43.28 191.937 42.72C190.55 42.16 189.39 41.4 188.457 40.44C187.55 39.4533 186.87 38.2933 186.417 36.96C185.99 35.6267 185.777 34.1867 185.777 32.64ZM199.777 30.36C199.75 29.8533 199.657 29.36 199.497 28.88C199.363 28.4 199.137 27.9733 198.817 27.6C198.523 27.2267 198.137 26.92 197.657 26.68C197.203 26.44 196.63 26.32 195.937 26.32C195.27 26.32 194.697 26.44 194.217 26.68C193.737 26.8933 193.337 27.1867 193.017 27.56C192.697 27.9333 192.443 28.3733 192.257 28.88C192.097 29.36 191.977 29.8533 191.897 30.36H199.777ZM218.536 43.4C216.803 43.3733 215.389 43.1867 214.296 42.84C213.229 42.4933 212.376 42.0133 211.736 41.4C211.123 40.76 210.696 40 210.456 39.12C210.243 38.2133 210.136 37.2 210.136 36.08V12.92L216.096 11.96V34.88C216.096 35.4133 216.136 35.8933 216.216 36.32C216.296 36.7467 216.443 37.1067 216.656 37.4C216.896 37.6933 217.229 37.9333 217.656 38.12C218.083 38.3067 218.656 38.4267 219.376 38.48L218.536 43.4ZM228.752 43H222.792V21.96H228.752V43ZM229.312 15.88C229.312 16.9733 228.952 17.84 228.232 18.48C227.539 19.0933 226.712 19.4 225.752 19.4C224.792 19.4 223.952 19.0933 223.232 18.48C222.539 17.84 222.192 16.9733 222.192 15.88C222.192 14.7867 222.539 13.9333 223.232 13.32C223.952 12.68 224.792 12.36 225.752 12.36C226.712 12.36 227.539 12.68 228.232 13.32C228.952 13.9333 229.312 14.7867 229.312 15.88ZM250.155 25.96C249.675 26.4933 249.021 27.2133 248.195 28.12C247.395 29.0267 246.528 30.0267 245.595 31.12C244.661 32.2133 243.715 33.36 242.755 34.56C241.821 35.76 240.968 36.92 240.195 38.04H250.355V43H232.955V39.48C233.515 38.52 234.181 37.4933 234.955 36.4C235.755 35.28 236.581 34.16 237.435 33.04C238.315 31.92 239.181 30.84 240.035 29.8C240.888 28.7333 241.675 27.7733 242.395 26.92H233.435V21.96H250.155V25.96ZM252.769 32.64C252.769 30.7733 253.049 29.1467 253.609 27.76C254.195 26.3467 254.955 25.1733 255.889 24.24C256.822 23.3067 257.889 22.6 259.089 22.12C260.315 21.64 261.569 21.4 262.849 21.4C265.835 21.4 268.195 22.32 269.929 24.16C271.662 25.9733 272.529 28.6533 272.529 32.2C272.529 32.5467 272.515 32.9333 272.489 33.36C272.462 33.76 272.435 34.12 272.409 34.44H258.889C259.022 35.6667 259.595 36.64 260.609 37.36C261.622 38.08 262.982 38.44 264.689 38.44C265.782 38.44 266.849 38.3467 267.889 38.16C268.955 37.9467 269.822 37.6933 270.489 37.4L271.289 42.24C270.969 42.4 270.542 42.56 270.009 42.72C269.475 42.88 268.875 43.0133 268.209 43.12C267.569 43.2533 266.875 43.36 266.129 43.44C265.382 43.52 264.635 43.56 263.889 43.56C261.995 43.56 260.342 43.28 258.929 42.72C257.542 42.16 256.382 41.4 255.449 40.44C254.542 39.4533 253.862 38.2933 253.409 36.96C252.982 35.6267 252.769 34.1867 252.769 32.64ZM266.769 30.36C266.742 29.8533 266.649 29.36 266.489 28.88C266.355 28.4 266.129 27.9733 265.809 27.6C265.515 27.2267 265.129 26.92 264.649 26.68C264.195 26.44 263.622 26.32 262.929 26.32C262.262 26.32 261.689 26.44 261.209 26.68C260.729 26.8933 260.329 27.1867 260.009 27.56C259.689 27.9333 259.435 28.3733 259.249 28.88C259.089 29.36 258.969 29.8533 258.889 30.36H266.769Z" fill="black"/>
</svg>
